<svg enable-background="new 0 0 256 256" height="256" viewBox="0 0 256 256" width="256" xmlns="http://www.w3.org/2000/svg" xmlns:xlink="http://www.w3.org/1999/xlink"><linearGradient id="a" gradientUnits="userSpaceOnUse" x1="0" x2="256" y1="256" y2="0"><stop offset="0" stop-color="#1e9cd7"/><stop offset=".304" stop-color="#0176bf"/><stop offset=".6786" stop-color="#0075be"/><stop offset=".7018" stop-color="#0075be"/><stop offset=".9944" stop-color="#005b97"/></linearGradient><linearGradient id="b" gradientUnits="userSpaceOnUse" x1="68.9361" x2="187.0637" y1="68.2473" y2="186.3749"><stop offset="0" stop-color="#d6d6d6"/><stop offset=".6013" stop-color="#d4d4d4"/><stop offset=".9993" stop-color="#707070"/></linearGradient><linearGradient id="c" gradientUnits="userSpaceOnUse" x1="112.8127" x2="142.7486" y1="188.8852" y2="137.0345"><stop offset="0" stop-color="#121212"/><stop offset="1" stop-color="#171717"/></linearGradient><linearGradient id="d" gradientUnits="userSpaceOnUse" x1="256" x2="84" y1="148.5745" y2="148.5745"><stop offset="0" stop-color="#262626"/><stop offset="1"/></linearGradient><path d="m0 0h256v256h-256z" fill="url(#a)"/><path d="m128 44c-16.2 0-29.5 13.2-29.5 29.4v.4.3.2 36.7c8.7-5 18.7-7.9 29.5-7.9 10.7 0 20.8 2.9 29.5 7.9v-37.1c0-.1 0-.2 0-.4 0-16.3-13.3-29.5-29.5-29.5z" fill-opacity=".1"/><path d="m173.5 73.9v-.3-.1c0-.2 0-.4 0-.6v-.2c-.4-24.7-20.7-44.7-45.5-44.7s-45.1 20-45.5 44.7v51.7c-8.4 10.2-13.5 23.3-13.5 37.6 0 32.6 26.4 59 59 59s59-26.4 59-59c0-14.3-5.1-27.4-13.5-37.6zm-32.7 112.3c.8 2.4-1 4.8-3.5 4.8h-19.9c-2.5 0-4.3-2.4-3.5-4.8l8.5-25.4c-6.1-2.1-10.4-7.9-10.4-14.7 0-8.6 6.9-15.5 15.5-15.5s15.5 6.9 15.5 15.5c0 6.8-4.4 12.7-10.6 14.7zm16.7-75.3c-8.7-5-18.7-7.9-29.5-7.9s-20.8 2.9-29.5 7.9v-36.7-.2-.3c0-.1 0-.2 0-.4 0-16.1 13.3-29.3 29.5-29.3s29.5 13.2 29.5 29.4v.4z" fill="url(#b)"/><path d="m143 146.1c0-8.6-6.9-15.5-15.5-15.5s-15.5 6.9-15.5 15.5c0 6.8 4.4 12.6 10.4 14.7l-8.5 25.4c-.8 2.4 1 4.8 3.5 4.8h19.9c2.5 0 4.3-2.4 3.5-4.8l-8.4-25.3c6.2-2.1 10.6-7.9 10.6-14.8z" fill="url(#c)"/><path d="m256 137.1-96-96c8.2 8.1 13.3 19.2 13.5 31.5v.2.6.1.3 50.6c8.4 10.2 13.5 23.3 13.5 37.6 0 32.6-26.4 59-59 59-17.1 0-32.6-7.3-43.4-19h-.6l54 54h118z" fill="url(#d)" fill-opacity=".17"/></svg>